<svg width="126" height="120" viewBox="0 0 126 120" fill="none" xmlns="http://www.w3.org/2000/svg">
<path d="M21.1386 42.099C14.6962 42.099 7.65259 47.2618 7.65259 57.7884C7.65259 63.1791 10.2703 66.5189 13.8367 68.2625C17.3165 69.9637 21.6276 70.1209 25.1672 69.4235C27.4365 69.0726 30.1301 67.61 32.2488 65.5908C34.3749 63.5646 36.0935 60.8112 36.0935 57.7884C36.0935 54.3603 35.3355 50.4488 33.0506 47.369C30.7282 44.2389 26.9247 42.099 21.1386 42.099Z" fill="url(#paint0_linear_15_4770)" stroke="white" stroke-width="2"/>
<path d="M15.8949 53.4173C15.9964 50.5748 14.7724 48.3936 12.9083 47.6353C11.9747 47.2555 10.9385 47.2713 9.99184 47.7308C9.05334 48.1863 8.27582 49.0395 7.74219 50.2135C7.05161 51.7328 6.62421 53.8296 6.36427 55.945C6.10167 58.0821 6 60.3272 6 62.1952C6 63.4689 6.25406 64.5092 6.76036 65.3092C7.27729 66.1261 8.00925 66.6154 8.80649 66.8499C10.3297 67.2979 12.0369 66.8132 13.171 66.1946C13.9898 65.748 14.4812 64.913 14.7996 64.0597C15.1262 63.1845 15.3331 62.1206 15.4747 60.988C15.7096 59.1088 15.7818 56.8745 15.8515 54.7179C15.8656 54.2799 15.8796 53.8452 15.8949 53.4173Z" fill="url(#paint1_linear_15_4770)" stroke="white" stroke-width="2"/>
<circle cx="21.1386" cy="39.6102" r="7.61024" fill="url(#paint2_linear_15_4770)" stroke="white" stroke-width="2"/>
<path d="M31.1386 61.099C24.6962 61.099 17.6526 66.2618 17.6526 76.7884C17.6526 82.1791 20.2703 85.5189 23.8367 87.2625C27.3165 88.9637 31.6276 89.1209 35.1672 88.4235C37.4365 88.0726 40.1301 86.61 42.2488 84.5908C44.3749 82.5646 46.0935 79.8112 46.0935 76.7884C46.0935 73.3603 45.3355 69.4488 43.0506 66.369C40.7282 63.2389 36.9247 61.099 31.1386 61.099Z" fill="url(#paint3_linear_15_4770)" stroke="white" stroke-width="2"/>
<path d="M25.8949 72.4173C25.9964 69.5748 24.7724 67.3936 22.9083 66.6353C21.9747 66.2555 20.9385 66.2713 19.9918 66.7308C19.0533 67.1863 18.2758 68.0395 17.7422 69.2135C17.0516 70.7328 16.6242 72.8296 16.3643 74.945C16.1017 77.0821 16 79.3272 16 81.1952C16 82.4689 16.2541 83.5092 16.7604 84.3092C17.2773 85.1261 18.0093 85.6154 18.8065 85.8499C20.3297 86.2979 22.0369 85.8132 23.171 85.1946C23.9898 84.748 24.4812 83.913 24.7996 83.0597C25.1262 82.1845 25.3331 81.1206 25.4747 79.988C25.7096 78.1088 25.7818 75.8745 25.8515 73.7179C25.8656 73.2799 25.8796 72.8452 25.8949 72.4173Z" fill="url(#paint4_linear_15_4770)" stroke="white" stroke-width="2"/>
<circle cx="31.1386" cy="58.6102" r="7.61024" fill="url(#paint5_linear_15_4770)" stroke="white" stroke-width="2"/>
<path d="M57.1386 43.099C50.6962 43.099 43.6526 48.2618 43.6526 58.7884C43.6526 64.1791 46.2703 67.5189 49.8367 69.2625C53.3165 70.9637 57.6276 71.1209 61.1672 70.4235C63.4365 70.0726 66.1301 68.61 68.2488 66.5908C70.3749 64.5646 72.0935 61.8112 72.0935 58.7884C72.0935 55.3603 71.3355 51.4488 69.0506 48.369C66.7282 45.2389 62.9247 43.099 57.1386 43.099Z" fill="url(#paint6_linear_15_4770)" stroke="white" stroke-width="2"/>
<path d="M51.8949 54.4173C51.9964 51.5748 50.7724 49.3936 48.9083 48.6353C47.9747 48.2555 46.9385 48.2713 45.9918 48.7308C45.0533 49.1863 44.2758 50.0395 43.7422 51.2135C43.0516 52.7328 42.6242 54.8296 42.3643 56.945C42.1017 59.0821 42 61.3272 42 63.1952C42 64.4689 42.2541 65.5092 42.7604 66.3092C43.2773 67.1261 44.0093 67.6154 44.8065 67.8499C46.3297 68.2979 48.0369 67.8132 49.171 67.1946C49.9898 66.748 50.4812 65.913 50.7996 65.0597C51.1262 64.1845 51.3331 63.1206 51.4747 61.988C51.7096 60.1088 51.7818 57.8745 51.8515 55.7179C51.8656 55.2799 51.8796 54.8452 51.8949 54.4173Z" fill="url(#paint7_linear_15_4770)" stroke="white" stroke-width="2"/>
<circle cx="57.1386" cy="40.6102" r="7.61024" fill="url(#paint8_linear_15_4770)" stroke="white" stroke-width="2"/>
<path d="M103.139 39.099C96.6962 39.099 89.6526 44.2618 89.6526 54.7884C89.6526 60.1791 92.2703 63.5189 95.8367 65.2625C99.3165 66.9637 103.628 67.1209 107.167 66.4235C109.436 66.0726 112.13 64.61 114.249 62.5908C116.375 60.5646 118.094 57.8112 118.094 54.7884C118.094 51.3603 117.336 47.4488 115.051 44.369C112.728 41.2389 108.925 39.099 103.139 39.099Z" fill="url(#paint9_linear_15_4770)" stroke="white" stroke-width="2"/>
<path d="M97.8949 50.4173C97.9964 47.5748 96.7724 45.3936 94.9083 44.6353C93.9747 44.2555 92.9385 44.2713 91.9918 44.7308C91.0533 45.1863 90.2758 46.0395 89.7422 47.2135C89.0516 48.7328 88.6242 50.8296 88.3643 52.945C88.1017 55.0821 88 57.3272 88 59.1952C88 60.4689 88.2541 61.5092 88.7604 62.3092C89.2773 63.1261 90.0093 63.6154 90.8065 63.8499C92.3297 64.2979 94.0369 63.8132 95.171 63.1946C95.9898 62.748 96.4812 61.913 96.7996 61.0597C97.1262 60.1845 97.3331 59.1206 97.4747 57.988C97.7096 56.1088 97.7818 53.8745 97.8515 51.7179C97.8656 51.2799 97.8796 50.8452 97.8949 50.4173Z" fill="url(#paint10_linear_15_4770)" stroke="white" stroke-width="2"/>
<circle cx="103.139" cy="36.6102" r="7.61024" fill="url(#paint11_linear_15_4770)" stroke="white" stroke-width="2"/>
<path d="M16.1386 72.099C9.6962 72.099 2.65259 77.2618 2.65259 87.7884C2.65259 93.1791 5.27026 96.5189 8.83667 98.2625C12.3165 99.9637 16.6276 100.121 20.1672 99.4235C22.4365 99.0726 25.1301 97.61 27.2488 95.5908C29.3749 93.5646 31.0935 90.8112 31.0935 87.7884C31.0935 84.3603 30.3355 80.4488 28.0506 77.369C25.7282 74.2389 21.9247 72.099 16.1386 72.099Z" fill="url(#paint12_linear_15_4770)" stroke="white" stroke-width="2"/>
<path d="M10.8949 83.4173C10.9964 80.5748 9.77242 78.3936 7.90828 77.6353C6.97467 77.2555 5.93855 77.2713 4.99184 77.7308C4.05334 78.1863 3.27582 79.0395 2.74219 80.2135C2.05161 81.7328 1.62421 83.8296 1.36427 85.945C1.10167 88.0821 1 90.3272 1 92.1952C1 93.4689 1.25406 94.5092 1.76036 95.3092C2.27729 96.1261 3.00925 96.6154 3.80649 96.8499C5.32969 97.2979 7.03693 96.8132 8.171 96.1946C8.98976 95.748 9.48119 94.913 9.79962 94.0597C10.1262 93.1845 10.3331 92.1206 10.4747 90.988C10.7096 89.1088 10.7818 86.8745 10.8515 84.7179C10.8656 84.2799 10.8796 83.8452 10.8949 83.4173Z" fill="url(#paint13_linear_15_4770)" stroke="white" stroke-width="2"/>
<circle cx="16.1386" cy="69.6102" r="7.61024" fill="url(#paint14_linear_15_4770)" stroke="white" stroke-width="2"/>
<path d="M49.1386 72.099C42.6962 72.099 35.6526 77.2618 35.6526 87.7884C35.6526 93.1791 38.2703 96.5189 41.8367 98.2625C45.3165 99.9637 49.6276 100.121 53.1672 99.4235C55.4365 99.0726 58.1301 97.61 60.2488 95.5908C62.3749 93.5646 64.0935 90.8112 64.0935 87.7884C64.0935 84.3603 63.3355 80.4488 61.0506 77.369C58.7282 74.2389 54.9247 72.099 49.1386 72.099Z" fill="url(#paint15_linear_15_4770)" stroke="white" stroke-width="2"/>
<path d="M43.8949 83.4173C43.9964 80.5748 42.7724 78.3936 40.9083 77.6353C39.9747 77.2555 38.9385 77.2713 37.9918 77.7308C37.0533 78.1863 36.2758 79.0395 35.7422 80.2135C35.0516 81.7328 34.6242 83.8296 34.3643 85.945C34.1017 88.0821 34 90.3272 34 92.1952C34 93.4689 34.2541 94.5092 34.7604 95.3092C35.2773 96.1261 36.0093 96.6154 36.8065 96.8499C38.3297 97.2979 40.0369 96.8132 41.171 96.1946C41.9898 95.748 42.4812 94.913 42.7996 94.0597C43.1262 93.1845 43.3331 92.1206 43.4747 90.988C43.7096 89.1088 43.7818 86.8745 43.8515 84.7179C43.8656 84.2799 43.8796 83.8452 43.8949 83.4173Z" fill="url(#paint16_linear_15_4770)" stroke="white" stroke-width="2"/>
<circle cx="49.1386" cy="69.6102" r="7.61024" fill="url(#paint17_linear_15_4770)" stroke="white" stroke-width="2"/>
<path d="M80.1386 54.099C73.6962 54.099 66.6526 59.2618 66.6526 69.7884C66.6526 75.1791 69.2703 78.5189 72.8367 80.2625C76.3165 81.9637 80.6276 82.1209 84.1672 81.4235C86.4365 81.0726 89.1301 79.61 91.2488 77.5908C93.3749 75.5646 95.0935 72.8112 95.0935 69.7884C95.0935 66.3603 94.3355 62.4488 92.0506 59.369C89.7282 56.2389 85.9247 54.099 80.1386 54.099Z" fill="url(#paint18_linear_15_4770)" stroke="white" stroke-width="2"/>
<path d="M74.8949 65.4173C74.9964 62.5748 73.7724 60.3936 71.9083 59.6353C70.9747 59.2555 69.9385 59.2713 68.9918 59.7308C68.0533 60.1863 67.2758 61.0395 66.7422 62.2135C66.0516 63.7328 65.6242 65.8296 65.3643 67.945C65.1017 70.0821 65 72.3272 65 74.1952C65 75.4689 65.2541 76.5092 65.7604 77.3092C66.2773 78.1261 67.0093 78.6154 67.8065 78.8499C69.3297 79.2979 71.0369 78.8132 72.171 78.1946C72.9898 77.748 73.4812 76.913 73.7996 76.0597C74.1262 75.1845 74.3331 74.1206 74.4747 72.988C74.7096 71.1088 74.7818 68.8745 74.8515 66.7179C74.8656 66.2799 74.8796 65.8452 74.8949 65.4173Z" fill="url(#paint19_linear_15_4770)" stroke="white" stroke-width="2"/>
<circle cx="80.1386" cy="51.6102" r="7.61024" fill="url(#paint20_linear_15_4770)" stroke="white" stroke-width="2"/>
<path d="M70.1386 79.099C63.6962 79.099 56.6526 84.2618 56.6526 94.7884C56.6526 100.179 59.2703 103.519 62.8367 105.262C66.3165 106.964 70.6276 107.121 74.1672 106.423C76.4365 106.073 79.1301 104.61 81.2488 102.591C83.3749 100.565 85.0935 97.8112 85.0935 94.7884C85.0935 91.3603 84.3355 87.4488 82.0506 84.369C79.7282 81.2389 75.9247 79.099 70.1386 79.099Z" fill="url(#paint21_linear_15_4770)" stroke="white" stroke-width="2"/>
<path d="M64.8949 90.4173C64.9964 87.5748 63.7724 85.3936 61.9083 84.6353C60.9747 84.2555 59.9385 84.2713 58.9918 84.7308C58.0533 85.1863 57.2758 86.0395 56.7422 87.2135C56.0516 88.7328 55.6242 90.8296 55.3643 92.945C55.1017 95.0821 55 97.3272 55 99.1952C55 100.469 55.2541 101.509 55.7604 102.309C56.2773 103.126 57.0093 103.615 57.8065 103.85C59.3297 104.298 61.0369 103.813 62.171 103.195C62.9898 102.748 63.4812 101.913 63.7996 101.06C64.1262 100.184 64.3331 99.1206 64.4747 97.988C64.7096 96.1088 64.7818 93.8745 64.8515 91.7179C64.8656 91.2799 64.8796 90.8452 64.8949 90.4173Z" fill="url(#paint22_linear_15_4770)" stroke="white" stroke-width="2"/>
<circle cx="70.1386" cy="76.6102" r="7.61024" fill="url(#paint23_linear_15_4770)" stroke="white" stroke-width="2"/>
<path d="M61.1386 91.099C54.6962 91.099 47.6526 96.2618 47.6526 106.788C47.6526 112.179 50.2703 115.519 53.8367 117.262C57.3165 118.964 61.6276 119.121 65.1672 118.423C67.4365 118.073 70.1301 116.61 72.2488 114.591C74.3749 112.565 76.0935 109.811 76.0935 106.788C76.0935 103.36 75.3355 99.4488 73.0506 96.369C70.7282 93.2389 66.9247 91.099 61.1386 91.099Z" fill="url(#paint24_linear_15_4770)" stroke="white" stroke-width="2"/>
<path d="M55.8949 102.417C55.9964 99.5748 54.7724 97.3936 52.9083 96.6353C51.9747 96.2555 50.9385 96.2713 49.9918 96.7308C49.0533 97.1863 48.2758 98.0395 47.7422 99.2135C47.0516 100.733 46.6242 102.83 46.3643 104.945C46.1017 107.082 46 109.327 46 111.195C46 112.469 46.2541 113.509 46.7604 114.309C47.2773 115.126 48.0093 115.615 48.8065 115.85C50.3297 116.298 52.0369 115.813 53.171 115.195C53.9898 114.748 54.4812 113.913 54.7996 113.06C55.1262 112.184 55.3331 111.121 55.4747 109.988C55.7096 108.109 55.7818 105.874 55.8515 103.718C55.8656 103.28 55.8796 102.845 55.8949 102.417Z" fill="url(#paint25_linear_15_4770)" stroke="white" stroke-width="2"/>
<circle cx="61.1386" cy="88.6102" r="7.61024" fill="url(#paint26_linear_15_4770)" stroke="white" stroke-width="2"/>
<path d="M29.1386 87.099C22.6962 87.099 15.6526 92.2618 15.6526 102.788C15.6526 108.179 18.2703 111.519 21.8367 113.262C25.3165 114.964 29.6276 115.121 33.1672 114.423C35.4365 114.073 38.1301 112.61 40.2488 110.591C42.3749 108.565 44.0935 105.811 44.0935 102.788C44.0935 99.3603 43.3355 95.4488 41.0506 92.369C38.7282 89.2389 34.9247 87.099 29.1386 87.099Z" fill="url(#paint27_linear_15_4770)" stroke="white" stroke-width="2"/>
<path d="M23.8949 98.4173C23.9964 95.5748 22.7724 93.3936 20.9083 92.6353C19.9747 92.2555 18.9385 92.2713 17.9918 92.7308C17.0533 93.1863 16.2758 94.0395 15.7422 95.2135C15.0516 96.7328 14.6242 98.8296 14.3643 100.945C14.1017 103.082 14 105.327 14 107.195C14 108.469 14.2541 109.509 14.7604 110.309C15.2773 111.126 16.0093 111.615 16.8065 111.85C18.3297 112.298 20.0369 111.813 21.171 111.195C21.9898 110.748 22.4812 109.913 22.7996 109.06C23.1262 108.184 23.3331 107.121 23.4747 105.988C23.7096 104.109 23.7818 101.874 23.8515 99.7179C23.8656 99.2799 23.8796 98.8452 23.8949 98.4173Z" fill="url(#paint28_linear_15_4770)" stroke="white" stroke-width="2"/>
<circle cx="29.1386" cy="84.6102" r="7.61024" fill="url(#paint29_linear_15_4770)" stroke="white" stroke-width="2"/>
<path d="M101.139 58.099C94.6962 58.099 87.6526 63.2618 87.6526 73.7884C87.6526 79.1791 90.2703 82.5189 93.8367 84.2625C97.3165 85.9637 101.628 86.1209 105.167 85.4235C107.436 85.0726 110.13 83.61 112.249 81.5908C114.375 79.5646 116.094 76.8112 116.094 73.7884C116.094 70.3603 115.336 66.4488 113.051 63.369C110.728 60.2389 106.925 58.099 101.139 58.099Z" fill="url(#paint30_linear_15_4770)" stroke="white" stroke-width="2"/>
<path d="M95.8949 69.4173C95.9964 66.5748 94.7724 64.3936 92.9083 63.6353C91.9747 63.2555 90.9385 63.2713 89.9918 63.7308C89.0533 64.1863 88.2758 65.0395 87.7422 66.2135C87.0516 67.7328 86.6242 69.8296 86.3643 71.945C86.1017 74.0821 86 76.3272 86 78.1952C86 79.4689 86.2541 80.5092 86.7604 81.3092C87.2773 82.1261 88.0093 82.6154 88.8065 82.8499C90.3297 83.2979 92.0369 82.8132 93.171 82.1946C93.9898 81.748 94.4812 80.913 94.7996 80.0597C95.1262 79.1845 95.3331 78.1206 95.4747 76.988C95.7096 75.1088 95.7818 72.8745 95.8515 70.7179C95.8656 70.2799 95.8796 69.8452 95.8949 69.4173Z" fill="url(#paint31_linear_15_4770)" stroke="white" stroke-width="2"/>
<circle cx="101.139" cy="55.6102" r="7.61024" fill="url(#paint32_linear_15_4770)" stroke="white" stroke-width="2"/>
<path d="M98.1386 84.099C91.6962 84.099 84.6526 89.2618 84.6526 99.7884C84.6526 105.179 87.2703 108.519 90.8367 110.262C94.3165 111.964 98.6276 112.121 102.167 111.423C104.436 111.073 107.13 109.61 109.249 107.591C111.375 105.565 113.094 102.811 113.094 99.7884C113.094 96.3603 112.336 92.4488 110.051 89.369C107.728 86.2389 103.925 84.099 98.1386 84.099Z" fill="url(#paint33_linear_15_4770)" stroke="white" stroke-width="2"/>
<path d="M92.8949 95.4173C92.9964 92.5748 91.7724 90.3936 89.9083 89.6353C88.9747 89.2555 87.9385 89.2713 86.9918 89.7308C86.0533 90.1863 85.2758 91.0395 84.7422 92.2135C84.0516 93.7328 83.6242 95.8296 83.3643 97.945C83.1017 100.082 83 102.327 83 104.195C83 105.469 83.2541 106.509 83.7604 107.309C84.2773 108.126 85.0093 108.615 85.8065 108.85C87.3297 109.298 89.0369 108.813 90.171 108.195C90.9898 107.748 91.4812 106.913 91.7996 106.06C92.1262 105.184 92.3331 104.121 92.4747 102.988C92.7096 101.109 92.7818 98.8745 92.8515 96.7179C92.8656 96.2799 92.8796 95.8452 92.8949 95.4173Z" fill="url(#paint34_linear_15_4770)" stroke="white" stroke-width="2"/>
<circle cx="98.1386" cy="81.6102" r="7.61024" fill="url(#paint35_linear_15_4770)" stroke="white" stroke-width="2"/>
<path d="M1 54L0.999999 26L125 26L125 54" stroke="black"/>
<line x1="63.5" y1="26" x2="63.5" y2="12" stroke="black"/>
<rect x="49.5" y="0.5" width="29" height="20" rx="9.5" fill="white" stroke="black"/>
<path d="M60 10L62.6667 13L68 7" stroke="#212121" stroke-linecap="round"/>
<defs>
<linearGradient id="paint0_linear_15_4770" x1="34.843" y1="42.4856" x2="20.7685" y2="68.208" gradientUnits="userSpaceOnUse">
<stop stop-color="#29C3DA"/>
<stop offset="1" stop-color="#133D48"/>
</linearGradient>
<linearGradient id="paint1_linear_15_4770" x1="14.8261" y1="47.9457" x2="3.64483" y2="56.8378" gradientUnits="userSpaceOnUse">
<stop stop-color="#29C3DA"/>
<stop offset="1" stop-color="#133D48"/>
</linearGradient>
<linearGradient id="paint2_linear_15_4770" x1="27.6235" y1="32.6846" x2="20.2795" y2="45.7371" gradientUnits="userSpaceOnUse">
<stop stop-color="#29C3DA"/>
<stop offset="1" stop-color="#133D48"/>
</linearGradient>
<linearGradient id="paint3_linear_15_4770" x1="44.843" y1="61.4856" x2="30.7685" y2="87.208" gradientUnits="userSpaceOnUse">
<stop stop-color="#EBA384"/>
<stop offset="1" stop-color="#FE5912"/>
</linearGradient>
<linearGradient id="paint4_linear_15_4770" x1="24.8261" y1="66.9457" x2="13.6448" y2="75.8378" gradientUnits="userSpaceOnUse">
<stop stop-color="#EBA384"/>
<stop offset="1" stop-color="#FE5912"/>
</linearGradient>
<linearGradient id="paint5_linear_15_4770" x1="37.6235" y1="51.6846" x2="30.2795" y2="64.7371" gradientUnits="userSpaceOnUse">
<stop stop-color="#EBA384"/>
<stop offset="1" stop-color="#FE5912"/>
</linearGradient>
<linearGradient id="paint6_linear_15_4770" x1="70.843" y1="43.4856" x2="56.7685" y2="69.208" gradientUnits="userSpaceOnUse">
<stop stop-color="#29C3DA"/>
<stop offset="1" stop-color="#133D48"/>
</linearGradient>
<linearGradient id="paint7_linear_15_4770" x1="50.8261" y1="48.9457" x2="39.6448" y2="57.8378" gradientUnits="userSpaceOnUse">
<stop stop-color="#29C3DA"/>
<stop offset="1" stop-color="#133D48"/>
</linearGradient>
<linearGradient id="paint8_linear_15_4770" x1="63.6235" y1="33.6846" x2="56.2795" y2="46.7371" gradientUnits="userSpaceOnUse">
<stop stop-color="#29C3DA"/>
<stop offset="1" stop-color="#133D48"/>
</linearGradient>
<linearGradient id="paint9_linear_15_4770" x1="116.843" y1="39.4856" x2="102.768" y2="65.208" gradientUnits="userSpaceOnUse">
<stop stop-color="#29C3DA"/>
<stop offset="1" stop-color="#133D48"/>
</linearGradient>
<linearGradient id="paint10_linear_15_4770" x1="96.8261" y1="44.9457" x2="85.6448" y2="53.8378" gradientUnits="userSpaceOnUse">
<stop stop-color="#29C3DA"/>
<stop offset="1" stop-color="#133D48"/>
</linearGradient>
<linearGradient id="paint11_linear_15_4770" x1="109.624" y1="29.6846" x2="102.28" y2="42.7371" gradientUnits="userSpaceOnUse">
<stop stop-color="#29C3DA"/>
<stop offset="1" stop-color="#133D48"/>
</linearGradient>
<linearGradient id="paint12_linear_15_4770" x1="29.843" y1="72.4856" x2="15.7685" y2="98.208" gradientUnits="userSpaceOnUse">
<stop stop-color="#29C3DA"/>
<stop offset="1" stop-color="#133D48"/>
</linearGradient>
<linearGradient id="paint13_linear_15_4770" x1="9.82605" y1="77.9457" x2="-1.35517" y2="86.8378" gradientUnits="userSpaceOnUse">
<stop stop-color="#29C3DA"/>
<stop offset="1" stop-color="#133D48"/>
</linearGradient>
<linearGradient id="paint14_linear_15_4770" x1="22.6235" y1="62.6846" x2="15.2795" y2="75.7371" gradientUnits="userSpaceOnUse">
<stop stop-color="#29C3DA"/>
<stop offset="1" stop-color="#133D48"/>
</linearGradient>
<linearGradient id="paint15_linear_15_4770" x1="62.843" y1="72.4856" x2="48.7685" y2="98.208" gradientUnits="userSpaceOnUse">
<stop stop-color="#29C3DA"/>
<stop offset="1" stop-color="#133D48"/>
</linearGradient>
<linearGradient id="paint16_linear_15_4770" x1="42.8261" y1="77.9457" x2="31.6448" y2="86.8378" gradientUnits="userSpaceOnUse">
<stop stop-color="#29C3DA"/>
<stop offset="1" stop-color="#133D48"/>
</linearGradient>
<linearGradient id="paint17_linear_15_4770" x1="55.6235" y1="62.6846" x2="48.2795" y2="75.7371" gradientUnits="userSpaceOnUse">
<stop stop-color="#29C3DA"/>
<stop offset="1" stop-color="#133D48"/>
</linearGradient>
<linearGradient id="paint18_linear_15_4770" x1="93.843" y1="54.4856" x2="79.7685" y2="80.208" gradientUnits="userSpaceOnUse">
<stop stop-color="#29C3DA"/>
<stop offset="1" stop-color="#133D48"/>
</linearGradient>
<linearGradient id="paint19_linear_15_4770" x1="73.8261" y1="59.9457" x2="62.6448" y2="68.8378" gradientUnits="userSpaceOnUse">
<stop stop-color="#29C3DA"/>
<stop offset="1" stop-color="#133D48"/>
</linearGradient>
<linearGradient id="paint20_linear_15_4770" x1="86.6235" y1="44.6846" x2="79.2795" y2="57.7371" gradientUnits="userSpaceOnUse">
<stop stop-color="#29C3DA"/>
<stop offset="1" stop-color="#133D48"/>
</linearGradient>
<linearGradient id="paint21_linear_15_4770" x1="83.843" y1="79.4856" x2="69.7685" y2="105.208" gradientUnits="userSpaceOnUse">
<stop stop-color="#EBA384"/>
<stop offset="1" stop-color="#FE5912"/>
</linearGradient>
<linearGradient id="paint22_linear_15_4770" x1="63.8261" y1="84.9457" x2="52.6448" y2="93.8378" gradientUnits="userSpaceOnUse">
<stop stop-color="#EBA384"/>
<stop offset="1" stop-color="#FE5912"/>
</linearGradient>
<linearGradient id="paint23_linear_15_4770" x1="76.6235" y1="69.6846" x2="69.2795" y2="82.7371" gradientUnits="userSpaceOnUse">
<stop stop-color="#EBA384"/>
<stop offset="1" stop-color="#FE5912"/>
</linearGradient>
<linearGradient id="paint24_linear_15_4770" x1="74.843" y1="91.4856" x2="60.7685" y2="117.208" gradientUnits="userSpaceOnUse">
<stop stop-color="#29C3DA"/>
<stop offset="1" stop-color="#133D48"/>
</linearGradient>
<linearGradient id="paint25_linear_15_4770" x1="54.8261" y1="96.9457" x2="43.6448" y2="105.838" gradientUnits="userSpaceOnUse">
<stop stop-color="#29C3DA"/>
<stop offset="1" stop-color="#133D48"/>
</linearGradient>
<linearGradient id="paint26_linear_15_4770" x1="67.6235" y1="81.6846" x2="60.2795" y2="94.7371" gradientUnits="userSpaceOnUse">
<stop stop-color="#29C3DA"/>
<stop offset="1" stop-color="#133D48"/>
</linearGradient>
<linearGradient id="paint27_linear_15_4770" x1="42.843" y1="87.4856" x2="28.7685" y2="113.208" gradientUnits="userSpaceOnUse">
<stop stop-color="#EBA384"/>
<stop offset="1" stop-color="#FE5912"/>
</linearGradient>
<linearGradient id="paint28_linear_15_4770" x1="22.8261" y1="92.9457" x2="11.6448" y2="101.838" gradientUnits="userSpaceOnUse">
<stop stop-color="#EBA384"/>
<stop offset="1" stop-color="#FE5912"/>
</linearGradient>
<linearGradient id="paint29_linear_15_4770" x1="35.6235" y1="77.6846" x2="28.2795" y2="90.7371" gradientUnits="userSpaceOnUse">
<stop stop-color="#EBA384"/>
<stop offset="1" stop-color="#FE5912"/>
</linearGradient>
<linearGradient id="paint30_linear_15_4770" x1="114.843" y1="58.4856" x2="100.768" y2="84.208" gradientUnits="userSpaceOnUse">
<stop stop-color="#EBA384"/>
<stop offset="1" stop-color="#FE5912"/>
</linearGradient>
<linearGradient id="paint31_linear_15_4770" x1="94.8261" y1="63.9457" x2="83.6448" y2="72.8378" gradientUnits="userSpaceOnUse">
<stop stop-color="#EBA384"/>
<stop offset="1" stop-color="#FE5912"/>
</linearGradient>
<linearGradient id="paint32_linear_15_4770" x1="107.624" y1="48.6846" x2="100.28" y2="61.7371" gradientUnits="userSpaceOnUse">
<stop stop-color="#EBA384"/>
<stop offset="1" stop-color="#FE5912"/>
</linearGradient>
<linearGradient id="paint33_linear_15_4770" x1="111.843" y1="84.4856" x2="97.7685" y2="110.208" gradientUnits="userSpaceOnUse">
<stop stop-color="#29C3DA"/>
<stop offset="1" stop-color="#133D48"/>
</linearGradient>
<linearGradient id="paint34_linear_15_4770" x1="91.8261" y1="89.9457" x2="80.6448" y2="98.8378" gradientUnits="userSpaceOnUse">
<stop stop-color="#29C3DA"/>
<stop offset="1" stop-color="#133D48"/>
</linearGradient>
<linearGradient id="paint35_linear_15_4770" x1="104.624" y1="74.6846" x2="97.2795" y2="87.7371" gradientUnits="userSpaceOnUse">
<stop stop-color="#29C3DA"/>
<stop offset="1" stop-color="#133D48"/>
</linearGradient>
</defs>
</svg>
