<svg width="128" height="83" viewBox="0 0 128 83" fill="none" xmlns="http://www.w3.org/2000/svg">
<path d="M104.726 28.004C95.2014 28.004 84.6907 35.6323 84.6907 51.398C84.6907 59.4083 88.5603 64.3211 93.8242 66.8945C99.0014 69.4256 105.455 69.6694 110.777 68.6189C114.105 68.1075 118.123 65.9418 121.301 62.9131C124.487 59.8772 127 55.8076 127 51.398C127 46.2364 125.857 40.3987 122.464 35.8262C119.034 31.2033 113.401 28.004 104.726 28.004Z" fill="url(#paint0_linear_15_4832)" stroke="white" stroke-width="2"/>
<path d="M96.2075 44.7155C96.3572 40.5247 94.5553 37.4527 91.9809 36.4055C90.6922 35.8813 89.2678 35.9031 87.9615 36.5371C86.6633 37.1672 85.5547 38.3635 84.7803 40.0671C83.7614 42.3087 83.1173 45.4408 82.7228 48.6518C82.3256 51.8844 82.1714 55.2851 82.1714 58.1162C82.1714 59.9918 82.5458 61.4715 83.2493 62.5831C83.9633 63.7114 84.9692 64.3843 86.0734 64.7091C88.2105 65.3377 90.6642 64.6604 92.3279 63.7529C93.4115 63.1618 94.1016 62.0319 94.5705 60.7752C95.0475 59.4967 95.3568 57.9212 95.5706 56.2108C95.9254 53.3724 96.0346 49.9964 96.1409 46.7084C96.1625 46.0387 96.1841 45.3726 96.2075 44.7155Z" fill="url(#paint1_linear_15_4832)" stroke="white" stroke-width="2"/>
<circle cx="104.725" cy="23.6855" r="11.0773" fill="url(#paint2_linear_15_4832)" stroke="white" stroke-width="2"/>
<path d="M37.6477 28.004C28.1235 28.004 17.6128 35.6323 17.6128 51.398C17.6128 59.4083 21.4825 64.3211 26.7463 66.8945C31.9235 69.4256 38.3775 69.6694 43.6986 68.6189C47.0276 68.1075 51.0454 65.9418 54.2234 62.9131C57.4088 59.8772 59.922 55.8076 59.922 51.398C59.922 46.2364 58.7788 40.3987 55.3863 35.8262C51.9564 31.2033 46.323 28.004 37.6477 28.004Z" fill="url(#paint3_linear_15_4832)" stroke="white" stroke-width="2"/>
<path d="M29.1296 44.7155C29.2793 40.5247 27.4775 37.4527 24.903 36.4055C23.6143 35.8813 22.1899 35.9031 20.8836 36.5371C19.5854 37.1672 18.4769 38.3635 17.7025 40.0671C16.6836 42.3087 16.0395 45.4408 15.6449 48.6518C15.2477 51.8844 15.0935 55.2851 15.0935 58.1162C15.0935 59.9918 15.4679 61.4715 16.1714 62.5831C16.8854 63.7114 17.8913 64.3843 18.9955 64.7091C21.1326 65.3377 23.5863 64.6604 25.25 63.7529C26.3336 63.1618 27.0237 62.0319 27.4926 60.7752C27.9697 59.4967 28.2789 57.9212 28.4927 56.2108C28.8475 53.3724 28.9567 49.9964 29.063 46.7084C29.0846 46.0387 29.1062 45.3726 29.1296 44.7155Z" fill="url(#paint4_linear_15_4832)" stroke="white" stroke-width="2"/>
<circle cx="37.6476" cy="23.6855" r="11.0773" fill="url(#paint5_linear_15_4832)" stroke="white" stroke-width="2"/>
<rect x="2" y="2" width="70" height="79" rx="35" stroke="#59A477" stroke-width="4"/>
<defs>
<linearGradient id="paint0_linear_15_4832" x1="125.618" y1="28.0689" x2="104.161" y2="67.2827" gradientUnits="userSpaceOnUse">
<stop stop-color="#EBA384"/>
<stop offset="1" stop-color="#FE5912"/>
</linearGradient>
<linearGradient id="paint1_linear_15_4832" x1="95.1022" y1="36.3929" x2="78.0564" y2="49.9489" gradientUnits="userSpaceOnUse">
<stop stop-color="#EBA384"/>
<stop offset="1" stop-color="#FE5912"/>
</linearGradient>
<linearGradient id="paint2_linear_15_4832" x1="114.612" y1="13.1274" x2="103.416" y2="33.0259" gradientUnits="userSpaceOnUse">
<stop stop-color="#EBA384"/>
<stop offset="1" stop-color="#FE5912"/>
</linearGradient>
<linearGradient id="paint3_linear_15_4832" x1="58.5401" y1="28.0689" x2="37.0834" y2="67.2827" gradientUnits="userSpaceOnUse">
<stop stop-color="#29C3DA"/>
<stop offset="1" stop-color="#133D48"/>
</linearGradient>
<linearGradient id="paint4_linear_15_4832" x1="28.0243" y1="36.3929" x2="10.9786" y2="49.9489" gradientUnits="userSpaceOnUse">
<stop stop-color="#29C3DA"/>
<stop offset="1" stop-color="#133D48"/>
</linearGradient>
<linearGradient id="paint5_linear_15_4832" x1="47.534" y1="13.1274" x2="36.338" y2="33.0259" gradientUnits="userSpaceOnUse">
<stop stop-color="#29C3DA"/>
<stop offset="1" stop-color="#133D48"/>
</linearGradient>
</defs>
</svg>
